<svg id="Layer_1" data-name="Layer 1" xmlns="http://www.w3.org/2000/svg" viewBox="0 0 92.89 158.84">
  <defs>
    <style>
      .cls-1 {
        fill: #fff;
      }
    </style>
  </defs>
  <title>logo</title>
  <g id="Page-1">
    <g id="nuvela-logo-shadow">
      <g id="NUVELA">
        <path id="Fill-1" class="cls-1" d="M87.5,158.83H84.18a2.1,2.1,0,0,1-2.28-1.56c-0.62-1.65-.62-1.65-2.37-1.65-6.06,0-12.12,0-18.18,0a0.83,0.83,0,0,0-1,.76,5.28,5.28,0,0,1-.34,1,2,2,0,0,1-2.05,1.42q-3.4,0-6.8,0c-1.74,0-2.51-1-1.94-2.71,1.33-3.9,2.71-7.79,4.06-11.69l9.82-28.37c0.55-1.58,1.06-1.94,2.72-1.94H76.29c1.54,0,2,.31,2.47,1.78l13.79,39.75,0.15,0.45c0.56,1.74-.13,2.71-2,2.73H87.5"/>
        <path id="Fill-3" class="cls-1" d="M16.77,138.3H30.59c0-.39,0-0.77,0-1.15a1.86,1.86,0,0,1,1.86-1.95q3.36-.07,6.72,0a1.89,1.89,0,0,1,1.9,2.07q0,9.72,0,19.43a1.94,1.94,0,0,1-2.1,2.13H8.38a1.94,1.94,0,0,1-2.09-1.9,6.27,6.27,0,0,1,0-.63q0-19.83,0-39.66a2.91,2.91,0,0,1,.49-1.75,2.44,2.44,0,0,1,1.62-.73c2-.09,4.06,0,6.09,0a2,2,0,0,1,2.28,2.27q0,10.43,0,20.85v1"/>
        <path id="Fill-5" class="cls-1" d="M82.85,74.82c0.46,0,.88,0,1.29,0a1.88,1.88,0,0,1,1.86,2q0,2.37,0,4.74a1.89,1.89,0,0,1-2,2.05c-0.36,0-.73,0-1.15,0v9.12h3.69A2,2,0,0,1,88.82,95c0,1.45,0,2.9,0,4.34a2,2,0,0,1-2.25,2.22H57.16a2,2,0,0,1-2.33-2.31q0-20.06,0-40.13a2,2,0,0,1,2.29-2.27H86.61a2,2,0,0,1,2.21,2.19q0,2.25,0,4.5a2,2,0,0,1-2.15,2.15l-3.64,0a0.59,0.59,0,0,0-.18.08v9Z"/>
        <path id="Fill-7" class="cls-1" d="M11.87,60.31h6.81c3.87,0,7.75,0,11.62,0a0.84,0.84,0,0,0,1-.63c0.61-2.09,2-2.89,4.16-2.67,1.75,0.18,3.53,0,5.29,0,2,0,2.65.91,2.1,2.77L31,100a2.25,2.25,0,0,1-2.43,1.81H14.53A2.25,2.25,0,0,1,12,99.9Q9.06,90,6.13,80L0.29,60.23l-0.11-.38c-0.55-1.85.14-2.78,2.07-2.78H8.81a2.2,2.2,0,0,1,2.44,1.68l0.61,1.57"/>
        <path id="Fill-12" class="cls-1" d="M63.27,3.22h17c0-.4,0-0.75,0-1.11A2,2,0,0,1,82.44,0c2.08,0,4.17,0,6.25,0a1.92,1.92,0,0,1,2.1,2.05c0,10.88.06,21.76-.06,32.64a10.37,10.37,0,0,1-9.89,10q-9,.21-18,0a10.54,10.54,0,0,1-10-10.06c-0.09-2.39,0-4.79,0-7.19q0-12.49,0-25c0-1.73.71-2.43,2.45-2.43h5.61c1.77,0,2.41.64,2.43,2.43,0,0.23,0,.47,0,0.78"/>
        <path id="Fill-9" class="cls-1" d="M31.29,26.07V25.22q0-11.3,0-22.6c0-2,.63-2.61,2.59-2.61h5.61a2,2,0,0,1,2.32,2.33q0,20,0,40.06a2,2,0,0,1-2.32,2.32c-2.27,0-4.53,0-6.8,0a2.14,2.14,0,0,1-2.17-1.16c-0.84-1.82-2.23-2.18-4.12-2.11-4.19.15-8.38,0-12.57,0h-1c0,0.48,0,.87,0,1.26a1.9,1.9,0,0,1-2,2q-3.16,0-6.33,0a2,2,0,0,1-2.13-2.18q0-6.56,0-13.12,0-13.43,0-26.86C2.32,0.69,3,0,4.83,0,7,0,9.15,0,11.31,0a2.65,2.65,0,0,1,2.38,1.25q8.45,12.1,16.94,24.18l0.5,0.69,0.15,0"/>
      </g>
    </g>
  </g>
  <g id="Page-1-2" data-name="Page-1">
    <g id="nuvela-logo-shadow-2" data-name="nuvela-logo-shadow">
      <g id="NUVELA-2" data-name="NUVELA">
        <path id="Fill-1-2" data-name="Fill-1" class="cls-1" d="M86.22,156.41H83a2,2,0,0,1-2.21-1.51c-0.6-1.6-.6-1.6-2.3-1.6-5.87,0-11.75,0-17.62,0a0.81,0.81,0,0,0-1,.74,5.12,5.12,0,0,1-.33,1,2,2,0,0,1-2,1.37q-3.29,0-6.59,0c-1.69,0-2.43-1-1.88-2.63,1.29-3.78,2.62-7.55,3.93-11.33L62.54,115c0.53-1.53,1-1.88,2.63-1.88H75.36c1.5,0,1.9.3,2.39,1.73l13.36,38.54,0.15,0.43c0.55,1.68-.13,2.63-1.9,2.64H86.22"/>
        <path id="Fill-3-2" data-name="Fill-3" class="cls-1" d="M17.69,136.51H31.08c0-.38,0-0.75,0-1.12a1.8,1.8,0,0,1,1.8-1.89q3.25-.07,6.51,0a1.83,1.83,0,0,1,1.84,2q0,9.42,0,18.84a1.88,1.88,0,0,1-2,2.07H9.56a1.88,1.88,0,0,1-2-1.84,6.08,6.08,0,0,1,0-.61q0-19.22,0-38.45a2.82,2.82,0,0,1,.47-1.7,2.37,2.37,0,0,1,1.57-.71c2-.08,3.93,0,5.9,0a1.94,1.94,0,0,1,2.21,2.2q0,10.11,0,20.22v1"/>
        <path id="Fill-5-2" data-name="Fill-5" class="cls-1" d="M81.72,75c0.44,0,.85,0,1.25,0a1.82,1.82,0,0,1,1.81,2q0,2.3,0,4.6a1.83,1.83,0,0,1-1.93,2c-0.35,0-.71,0-1.11,0v8.84h3.58a1.93,1.93,0,0,1,2.19,2.21c0,1.4,0,2.81,0,4.21a1.93,1.93,0,0,1-2.18,2.16H56.83a2,2,0,0,1-2.25-2.24q0-19.45,0-38.91a2,2,0,0,1,2.22-2.2H85.36a1.92,1.92,0,0,1,2.14,2.13q0,2.18,0,4.37a1.89,1.89,0,0,1-2.08,2.08l-3.52,0a0.57,0.57,0,0,0-.17.08V75Z"/>
        <path id="Fill-7-2" data-name="Fill-7" class="cls-1" d="M12.94,60.9h6.6c3.75,0,7.51,0,11.26,0a0.81,0.81,0,0,0,1-.61c0.59-2,1.91-2.8,4-2.58,1.69,0.17,3.42,0,5.13,0,1.89,0,2.57.89,2,2.68L31.51,99.34a2.18,2.18,0,0,1-2.35,1.76H15.52a2.18,2.18,0,0,1-2.45-1.82Q10.22,89.64,7.39,80L1.73,60.81l-0.11-.37c-0.53-1.8.13-2.69,2-2.7H10a2.13,2.13,0,0,1,2.37,1.63l0.59,1.52"/>
        <path id="Fill-12-2" data-name="Fill-12" class="cls-1" d="M62.75,5.54h16.5c0-.38,0-0.73,0-1.08a1.89,1.89,0,0,1,2.07-2c2,0,4,0,6.05,0a1.87,1.87,0,0,1,2,2c0,10.55.05,21.1-.05,31.64a10.05,10.05,0,0,1-9.59,9.66q-8.73.2-17.47,0A10.22,10.22,0,0,1,52.61,36c-0.08-2.32,0-4.65,0-7q0-12.11,0-24.21c0-1.67.69-2.35,2.37-2.36h5.44c1.72,0,2.33.62,2.35,2.36,0,0.23,0,.45,0,0.75"/>
        <path id="Fill-9-2" data-name="Fill-9" class="cls-1" d="M31.76,27.7V26.87q0-11,0-21.91c0-1.91.61-2.53,2.51-2.53h5.44A2,2,0,0,1,42,4.69q0,19.42,0,38.84a2,2,0,0,1-2.24,2.25c-2.2,0-4.39,0-6.59,0A2.08,2.08,0,0,1,31,44.66c-0.82-1.76-2.16-2.11-4-2-4.06.14-8.12,0-12.18,0h-1c0,0.47,0,.85,0,1.22a1.84,1.84,0,0,1-2,1.89q-3.06,0-6.13,0A1.9,1.9,0,0,1,3.7,43.66q0-6.36,0-12.72,0-13,0-26c0-1.8.65-2.47,2.43-2.47,2.09,0,4.19,0,6.28,0a2.56,2.56,0,0,1,2.31,1.22Q22.9,15.37,31.13,27.08l0.49,0.67,0.15,0"/>
      </g>
    </g>
  </g>
</svg>
